<svg width="352.44mm" height="68.739mm" version="1.1" viewBox="0 0 352.44 68.739" xmlns="http://www.w3.org/2000/svg">
 <g transform="translate(202.11 -632.01)">
  <g transform="matrix(3.2966 0 0 3.2966 -351.88 -1193.6)">
   <path d="m50.459 564.93c0.02391 0.7958 0.0062 1.743-0.10945 2.4508-0.04296 0.2628-0.09811 0.4836-0.16397 0.64311-0.0302 0.0732-0.0618 0.13106-0.09253 0.17013-0.02899 0.0369-0.05723 0.056-0.07232 0.0482-0.01256-6e-3 -0.01512-0.0411 0.02995-0.087 0.02151-0.0219 0.05132-0.0427 0.08854-0.0585 0.03686-0.0156 0.07509-0.0239 0.11175-0.027 0.03538-3e-3 0.06641-1e-3 0.0902 1e-3 0.02464 2e-3 0.04015 4e-3 0.05322 4e-3 0.02365-4.4e-4 0.02926-0.0106 0.02622-0.0347-0.0048-0.0384-0.0436-0.14706-0.0835-0.26814-0.0428-0.12987-0.09014-0.28-0.14502-0.46894-0.09754-0.33579-0.20262-0.73896-0.30726-1.1941-0.0092-0.0401-0.01847-0.0808-0.02774-0.12201-0.10296-0.4582-0.20901-0.99083-0.28898-1.5396-0.07198-0.49395-0.12163-0.99392-0.12713-1.4404-0.0026-0.20982 0.0047-0.40011 0.02217-0.56659 0.01713-0.1635 0.04242-0.28835 0.07018-0.38006 0.0064-0.0287 0.02724-0.0836 0.0762-0.16345 0.04758-0.0776 0.11619-0.16994 0.20987-0.27569 0.18409-0.2078 0.44195-0.44164 0.76812-0.69227 0.31597-0.2428 0.68162-0.49032 1.0785-0.73331 0.39032-0.23899 0.80366-0.46919 1.2172-0.68113 0.41127-0.21075 0.81759-0.40077 1.1953-0.56137 0.38042-0.16175 0.72283-0.28986 1.0088-0.3802 0.14409-0.0455 0.26814-0.0796 0.37321-0.10411 0.11237-0.0262 0.17819-0.0359 0.23054-0.0435 0.02216-3e-3 0.03437-5e-3 0.03292-9e-3 -0.0015-4e-3 -0.01764-0.0108-0.04831-0.0315-0.03089-0.0209-0.07766-0.0597-0.11424-0.11787-0.03952-0.0629-0.05662-0.12945-0.05766-0.18661 0.0042-0.0433 0.01996-0.0542 0.02247-0.0443 0.0031 0.0124-0.0068 0.046-0.03268 0.092-0.056 0.0996-0.16622 0.22634-0.3159 0.36426-0.15817 0.14575-0.34971 0.29468-0.54991 0.43592-0.0488 0.0344-0.09811 0.0684-0.14762 0.1018-0.17199 0.116-0.34873 0.22839-0.51894 0.33307-0.23658 0.1455-0.47083 0.28241-0.67837 0.40166-0.22407 0.12875-0.4256 0.24191-0.59781 0.34023-0.08841 0.0505-0.17091 0.0981-0.24362 0.1413-0.07255 0.0431-0.142 0.0858-0.20044 0.12519-0.02963 0.02-0.05988 0.0414-0.0883 0.0636-0.02732 0.0214-0.06017 0.0491-0.0915 0.0826-0.01599 0.0171-0.0348 0.0392-0.05333 0.0661-0.01798 0.0261-0.04056 0.0639-0.05853 0.11235-0.01853 0.05-0.03525 0.11821-0.02963 0.2029 0.0028 0.0427 0.01146 0.0873 0.0275 0.1321s0.03815 0.0859 0.06477 0.1226c0.08216 0.11686 0.1794 0.22613 0.28592 0.32884 0.10424 0.10051 0.22002 0.19727 0.34428 0.29125 0.23709 0.17931 0.51097 0.35298 0.812 0.53049 0.30445 0.17953 0.63844 0.36341 0.9839 0.5607 0.2594 0.14815 0.52971 0.30852 0.78428 0.47772 0.26476 0.17596 0.51366 0.36217 0.72387 0.55911 0.20028 0.18764 0.35671 0.37689 0.46162 0.56824 0.09925 0.18102 0.15122 0.36128 0.15537 0.55004 4e-3 0.18312-0.0363 0.40298-0.16047 0.6706-0.12662 0.27306-0.32996 0.60912-0.61144 0.99696-0.277 0.38167-0.6193 0.79923-1.0144 1.2354-0.79473 0.87715-1.7767 1.8002-2.8173 2.6269-1.0783 0.85665-2.1731 1.5734-3.1742 2.054-0.52253 0.25085-1.003 0.42953-1.4344 0.53657-0.45401 0.11265-0.83275 0.14086-1.1427 0.10624 0.04655 6e-3 0.127 0.0219 0.21708 0.0674 0.04712 0.0238 0.10063 0.0577 0.15318 0.1057 0.05352 0.0489 0.10279 0.10963 0.14156 0.18217 0.03888 0.0727 0.06212 0.1479 0.07296 0.2204 0.01069 0.0715 0.0087 0.13579 0.0016 0.18897-0.01351 0.10232-0.04741 0.17848-0.06919 0.22044-0.02332 0.0449-0.04716 0.0781-0.06294 0.0983-0.0167 0.0214-0.03168 0.0377-0.04243 0.0486-0.0213 0.0217-0.03794 0.0349-0.04639 0.0412-0.01924 0.0142-0.02404 0.0139-0.02363 0.0114 5.12e-4 -3e-3 7e-3 -0.0105 0.01661-0.0198 0.01999-0.0194 0.05372-0.0475 0.0939-0.0795 0.02563-0.0204 0.05426-0.0428 0.08461-0.0662 0.01968-0.0152 0.04042-0.0312 0.06211-0.0479 0.08066-0.062 0.314-0.23981 0.39467-0.30179 0.14996-0.11476 0.30923-0.23729 0.46807-0.36176 0.35564-0.27867 0.6622-0.53048 0.89134-0.74268 0.13467-0.12471 0.22977-0.22396 0.29429-0.3028 0.03852-0.0471 0.0647-0.0851 0.08203-0.11582 0.01009-0.0179 0.01707-0.0331 0.02174-0.0459 0.0055-0.0151 0.0078-0.0269 0.0082-0.0359-0.0078-4e-3 -0.01887-9e-3 -0.03451-0.0126-0.0133-3e-3 -0.0298-6e-3 -0.05027-7e-3 -0.03515-2e-3 -0.0813-1e-3 -0.14178 5e-3 -0.10114 0.011-0.23667 0.0366-0.41474 0.0819-0.29998 0.0764-0.68539 0.19995-1.1105 0.35371-0.1908 0.069-0.3822 0.14146-0.56088 0.21192-0.17533 0.0691-0.3398 0.1369-0.47703 0.19686-0.02689 0.0117-0.05289 0.0233-0.07786 0.0345-0.03849 0.0173-0.07588 0.0345-0.11106 0.051-0.0536 0.0252-0.10761 0.0515-0.15295 0.0754-0.02215 0.0117-0.0457 0.0246-0.06836 0.0383-0.0206 0.0124-0.04939 0.0306-0.08022 0.055-0.01513 0.012-0.03794 0.0311-0.0634 0.0573-0.01291 0.0133-0.02978 0.0318-0.048 0.0552-0.0173 0.0222-0.04235 0.0573-0.06651 0.10388-0.02262 0.0436-0.05705 0.12131-0.07072 0.22494-0.0071 0.0539-0.0091 0.11876 0.0016 0.19083 0.01092 0.0731 0.03434 0.14877 0.07348 0.222 0.03903 0.073 0.08864 0.13418 0.1426 0.18349 0.053 0.0484 0.10703 0.0827 0.15476 0.10676 0.09131 0.0461 0.17334 0.0621 0.22172 0.0686 0.51703 0.0717 1.0723 0.0247 1.6481-0.1135 0.54858-0.13173 1.123-0.3481 1.7108-0.63174 1.1222-0.54156 2.3047-1.3353 3.4255-2.2472 1.0878-0.88509 2.1102-1.8754 2.9374-2.8254 0.41187-0.47302 0.77561-0.93637 1.0745-1.3718 0.30012-0.43721 0.54173-0.85613 0.70048-1.2373 0.17861-0.42728 0.24918-0.83869 0.21917-1.2314-0.03081-0.4032-0.16532-0.75723-0.35389-1.0635-0.19369-0.31455-0.44634-0.5821-0.70972-0.81011-0.27786-0.24055-0.58572-0.4524-0.88276-0.63746-0.28691-0.17874-0.5842-0.34494-0.85286-0.4915-0.33943-0.18516-0.65144-0.34625-0.99086-0.53141-0.29424-0.16087-0.53774-0.30311-0.73967-0.44102-0.10462-0.0715-0.19371-0.13885-0.26876-0.20308-0.07694-0.0659-0.13607-0.12577-0.18079-0.1801 0.02443 0.0337 0.04482 0.0717 0.05962 0.11312 0.0148 0.0414 0.02267 0.0825 0.02521 0.12148 5e-3 0.0772-0.01035 0.13723-0.02575 0.17833-0.01485 0.0396-0.03241 0.0676-0.0437 0.0834-0.0119 0.0167-0.022 0.0274-0.02791 0.033-0.0139 0.0131-0.01356 8e-3 -0.01035 4e-3 0.0046-6e-3 0.01533-0.0171 0.03086-0.0307 0.03154-0.0276 0.07915-0.0638 0.14034-0.10663 0.0603-0.0422 0.1322-0.0898 0.21448-0.14244 0.16077-0.10279 0.35299-0.21951 0.57768-0.3547 0.19904-0.11976 0.45119-0.27051 0.68845-0.416 0.17517-0.10741 0.36231-0.22417 0.5461-0.34375 0.05313-0.0346 0.1067-0.0697 0.16018-0.10517 0.21642-0.1435 0.44284-0.30001 0.6437-0.45735 0.18384-0.14401 0.37175-0.30823 0.51317-0.48189 0.06921-0.085 0.13705-0.18394 0.18726-0.29567 0.04948-0.11012 0.08757-0.24564 0.08178-0.39902-0.0059-0.11261-0.04011-0.22777-0.10927-0.33249-0.06713-0.10164-0.15371-0.17323-0.23747-0.22249-0.08151-0.0479-0.16481-0.0775-0.2386-0.0966-0.07415-0.0191-0.14873-0.0302-0.21988-0.0362-0.14004-0.0119-0.29088-6e-3 -0.44435 9e-3 -0.15398 0.0159-0.32083 0.0434-0.49702 0.0804-0.34929 0.0733-0.74782 0.18648-1.1719 0.33009-0.42319 0.14332-0.87442 0.31783-1.3293 0.51479-0.45741 0.19804-0.91876 0.41887-1.3597 0.65384-0.44709 0.23826-0.87498 0.49202-1.2592 0.75343-0.39198 0.26673-0.74873 0.54832-1.0386 0.83918-0.14939 0.14992-0.28652 0.30779-0.40324 0.47334-0.11887 0.16861-0.22316 0.35454-0.29481 0.55662-0.08273 0.23456-0.13309 0.48378-0.1631 0.72812-0.03118 0.25393-0.0423 0.51862-0.03966 0.7821 0.0056 0.55742 0.07302 1.1454 0.16793 1.6906 0.10662 0.61256 0.25139 1.1932 0.40504 1.6896 0.01384 0.0447 0.02778 0.0888 0.04179 0.13232 0.15731 0.48812 0.33693 0.93377 0.52503 1.3033 0.10483 0.20596 0.21323 0.39021 0.32406 0.54789 0.11227 0.15974 0.23384 0.30201 0.36582 0.41336 0.06786 0.0573 0.14701 0.11354 0.23601 0.15777 0.0459 0.0228 0.09721 0.0438 0.15308 0.0595 0.05682 0.0159 0.11954 0.0267 0.18622 0.0276 0.06822 8.7e-4 0.13699-9e-3 0.20355-0.0305 0.06737-0.0221 0.1261-0.0546 0.17575-0.0931 0.09963-0.0774 0.1559-0.1733 0.18908-0.25393 0.03465-0.0842 0.05302-0.17337 0.06395-0.25658 0.01155-0.0879 0.01656-0.18384 0.01789-0.28147 0.0028-0.20869-0.01084-0.465-0.03263-0.73651-0.05926-0.7384-0.18544-1.6784-0.28842-2.4661z"/>
   <path d="m58.254 566.57c0.043 0.22685 0.11054 0.67954 0.39055 1.0796 0.18172 0.25965 0.42826 0.4578 0.70935 0.54894 0.06998 0.0227 0.14088 0.0386 0.2119 0.0484 0.37696 0.0516 0.74228-0.0647 1.0886-0.29246 0.27268-0.17931 0.57074-0.45498 0.8724-0.84469 0.0054-7e-3 0.01091-0.0141 0.01638-0.0213 0.36707-0.47627 0.66376-1.0899 0.81756-1.777 0.06616-0.29555 0.10432-0.6004 0.10613-0.89609 0.0017-0.2777-0.02873-0.55686-0.10497-0.80951-0.03716-0.12316-0.08646-0.24411-0.15116-0.35667-0.06371-0.11085-0.14414-0.21659-0.24512-0.3074-0.10042-0.0903-0.21936-0.16407-0.35658-0.21192-0.13586-0.0474-0.28066-0.0662-0.43004-0.0573-0.14709 9e-3 -0.29483 0.044-0.4411 0.10108-0.1452 0.0566-0.29123 0.13554-0.43779 0.23457-0.29058 0.19635-0.59585 0.48036-0.91628 0.85645-0.58239 0.6811-1.1549 1.5385-1.5954 2.412-0.2256 0.44739-0.41733 0.9004-0.55997 1.3406-0.14656 0.45234-0.24317 0.89685-0.26992 1.3144-0.02802 0.4373 0.01904 0.85542 0.17802 1.2279 0.07049 0.16513 0.16217 0.31852 0.27633 0.45648 0.02029 0.0245 0.04133 0.0486 0.06313 0.0722 0.14392 0.15589 0.31723 0.28724 0.51941 0.38946 0.19648 0.0993 0.41527 0.16874 0.65463 0.20938 0.23433 0.0398 0.48945 0.0522 0.76574 0.0381 0.53973-0.0276 1.1763-0.15735 1.9239-0.40029 0.48549-0.2103 0.93366-0.48038 1.3296-0.73654 0.54181-0.35051 0.98984-0.66371 1.2446-0.81213-0.28626 0.0707-0.82706 0.19802-1.445 0.34755-0.46647 0.11288-0.9247 0.21854-1.4036 0.29992-0.70506 0.19899-1.256 0.27908-1.6794 0.27937-0.2147 1.5e-4 -0.39165-0.0202-0.53649-0.0534-0.14723-0.0337-0.25927-0.08-0.34572-0.13068-0.08742-0.0512-0.15228-0.10921-0.20237-0.16987-0.0078-9e-3 -0.01531-0.019-0.02258-0.0288-0.04026-0.0542-0.07545-0.11738-0.10449-0.19183-0.06673-0.17104-0.10296-0.4074-0.08246-0.72383 0.01957-0.3021 0.08948-0.65395 0.211-1.0462 0.11752-0.37936 0.27919-0.78317 0.47591-1.1947 0.38572-0.80696 0.88955-1.6084 1.3956-2.2466 0.27084-0.34065 0.50164-0.56837 0.69133-0.71409 0.09452-0.0726 0.17506-0.12197 0.2419-0.15509 0.06687-0.0331 0.1179-0.049 0.15418-0.0567 0.03498-7e-3 0.06145-9e-3 0.07956-7e-3 0.01945 2e-3 0.04072 7e-3 0.06608 0.0222 0.02628 0.0161 0.05704 0.0434 0.08934 0.0869 0.03283 0.0442 0.06495 0.10195 0.09384 0.1738 0.06021 0.14977 0.09942 0.34309 0.11161 0.56438 0.01281 0.23262-0.0048 0.48392-0.05026 0.73563-0.1062 0.58792-0.34888 1.1114-0.65444 1.4947-0.0046 6e-3 -0.0092 0.0114-0.01382 0.017-0.25949 0.31681-0.5204 0.45801-0.71851 0.52122-0.23358 0.0745-0.44673 0.0585-0.59488 0.0532-0.01172-4.2e-4 -0.08794-3e-3 -0.09965-3e-3 -0.13616-5e-3 -0.30297-5e-3 -0.51851-0.081-0.35141-0.12338-0.64356-0.38868-0.79823-0.59854z"/>
   <path d="m64.524 569.04c0.12999-0.21211 0.39844-0.55368 0.60501-0.77019 0.08129-0.0852 0.14795-0.14655 0.20774-0.1949 0.03523-0.0285 0.05918-0.0455 0.08371-0.0642 0.01631-0.0124 0.03086-0.0235 0.04382-0.0343 0.03085-0.0257 0.05117-0.048 0.08608-0.0929 0.0318-0.0409 0.07393-0.0978 0.13647-0.17628 0.12179-0.15287 0.29756-0.35959 0.60494-0.69874 0.13881-0.16817 0.32099-0.36214 0.54107-0.56302 0.02121-0.0194 0.04274-0.0388 0.0646-0.0582 0.17912-0.15918 0.39624-0.33406 0.63649-0.51697 0.47068-0.35834 0.98469-0.71345 1.3769-0.98025 0.17421-0.13314 0.28995-0.19899 0.35097-0.22239 0.03313-0.0127 0.0282-5e-3 0.0096-9.2e-4 -0.01215 3e-3 -0.03325 6e-3 -0.06199 6e-3 -0.0292-1.5e-4 -0.06597-4e-3 -0.10735-0.0159-0.04206-0.012-0.08429-0.0308-0.12413-0.0568-0.03981-0.0259-0.07207-0.0556-0.09732-0.0848-0.04894-0.0567-0.06758-0.10735-0.07265-0.12104-0.0059-0.0158-0.0043-0.0119-0.0041 0.0142 1.37e-4 0.0264-9.98e-4 0.0643-6e-3 0.11848-0.01036 0.11169-0.03377 0.25546-0.07111 0.43315-0.03808 0.18119-0.08775 0.38412-0.14458 0.60187-0.12156 0.46572-0.27146 0.98521-0.40616 1.4852-0.15929 0.5913-0.28842 1.1191-0.37448 1.6033-0.04046 0.22764-0.06959 0.43601-0.0876 0.6273-0.0044 0.0462-0.0081 0.0919-0.01116 0.13699-0.01734 0.25355-0.01438 0.48836 0.01086 0.70089 0.02718 0.2289 0.08039 0.43321 0.16234 0.60586 0.04425 0.0932 0.09679 0.17697 0.15755 0.24936 0.06512 0.0776 0.13795 0.14001 0.21652 0.18651 0.08536 0.0505 0.17238 0.0792 0.25698 0.0917 0.09324 0.0138 0.18153 8e-3 0.2617-8e-3 0.19863-0.0381 0.39906-0.14654 0.53419-0.2191-0.16643 0.0266-0.36587 0.0226-0.51091-0.0516-0.05353-0.0274-0.09382-0.0616-0.12054-0.10037-0.02368-0.0343-0.0353-0.0702-0.04028-0.1068-0.0045-0.0327-0.0041-0.0696-0.0022-0.10924 0.0018-0.0367 0.0056-0.0835 0.01105-0.13487 0.01055-0.0995 0.0283-0.22547 0.06022-0.39306 0.02971-0.15602 0.06896-0.33401 0.12053-0.54713 0.0091-0.0374 0.01842-0.0756 0.02811-0.11474 0.04037-0.16295 0.08697-0.34238 0.14333-0.54823 0.12647-0.46193 0.25991-0.906 0.44244-1.5094 0.14216-0.46992 0.31128-1.0273 0.43772-1.5061 0.06076-0.23007 0.11634-0.45892 0.1593-0.67357 0.04116-0.20563 0.07353-0.41175 0.08572-0.60234 6e-3 -0.094 0.0076-0.19121 0.0012-0.28743-0.0062-0.0937-0.02075-0.19901-0.05286-0.30556-0.03161-0.1049-0.08608-0.23029-0.18379-0.34586-0.04927-0.0583-0.10846-0.11267-0.17828-0.1589-0.06972-0.0462-0.14489-0.0808-0.2231-0.10385-0.07738-0.0229-0.15337-0.0332-0.22513-0.0349-0.07108-2e-3 -0.13805 5e-3 -0.19937 0.0165-0.11988 0.0223-0.23013 0.0644-0.32721 0.11143-0.18959 0.0919-0.38789 0.23179-0.59307 0.4006-0.25062 0.23228-0.91646 0.84937-1.2612 1.1661-0.22308 0.20494-0.44418 0.40641-0.62725 0.56664-0.02291 0.02-0.04571 0.0399-0.06838 0.0595-0.2345 0.20305-0.4545 0.38284-0.64351 0.54259-0.331 0.29963-0.55214 0.48053-0.7214 0.64037-0.09064 0.0856-0.16676 0.16557-0.23121 0.25041-0.06879 0.0906-0.12233 0.18455-0.15798 0.28354-0.01565 0.0435-0.02745 0.0868-0.03554 0.13001-0.01109 0.0593-0.01453 0.11964-0.01243 0.18137 0.0036 0.10587 0.02356 0.2159 0.04575 0.33208 0.06699 0.35058 0.11713 0.66566 0.10142 0.97007z"/>
   <path d="m71.37 567.52c-0.17516 0.20896-0.44424 0.51438-0.66991 0.83522-0.15798 0.2246-0.31111 0.4787-0.40802 0.74602-0.08286 0.22855-0.13045 0.47989-0.09469 0.74508 0.01649 0.12227 0.05073 0.24482 0.10599 0.36375 0.02465 0.053 0.05319 0.10473 0.08563 0.15473 0.0362 0.0558 0.07754 0.11031 0.12428 0.16295 0.15646 0.17624 0.36216 0.31923 0.61 0.42301 0.21471 0.0899 0.45653 0.14862 0.72044 0.17803 0.46626 0.0519 1.0065 0.0132 1.5936-0.11133 0.53-0.11244 1.0984-0.29561 1.6575-0.54188 0.52745-0.2323 1.0512-0.523 1.5106-0.86025 0.22542-0.16549 0.4387-0.34467 0.62987-0.53625 0.18994-0.19035 0.36327-0.39816 0.50479-0.62234 0.14184-0.2247 0.25712-0.47448 0.31959-0.74536 0.06392-0.27719 0.07062-0.56937-6.2e-5 -0.86236-0.04456-0.17979-0.11766-0.34077-0.20436-0.4817-0.08862-0.14405-0.19316-0.27005-0.30202-0.37915-0.2283-0.22879-0.4976-0.4053-0.75211-0.53811-0.16308-0.0851-0.32811-0.15647-0.4872-0.21553-0.12222-0.0454-0.24878-0.0855-0.37818-0.11998-0.29551-0.0788-0.6041-0.12822-0.90534-0.14549-0.30127-0.0173-0.59184-2e-3 -0.85302 0.0458-0.13454 0.0248-0.26079 0.0582-0.37659 0.10023-0.12061 0.0438-0.22952 0.0967-0.32429 0.15855-0.10096 0.0658-0.18459 0.1409-0.24842 0.22339-0.07045 0.091-0.11255 0.18569-0.131 0.27864-0.02108 0.10621-0.0099 0.20243 0.01296 0.28465 0.02913 0.1047 0.08102 0.19883 0.12396 0.27011-0.01102-0.0869-0.0073-0.18386 0.02579-0.26827 0.02542-0.0648 0.06465-0.1132 0.11446-0.1445 0.0422-0.0265 0.09047-0.04 0.1446-0.0468 0.04899-6e-3 0.10822-7e-3 0.1757-4e-3 0.06436 3e-3 0.1386 0.0109 0.22276 0.024 0.08102 0.0125 0.17044 0.0299 0.26783 0.0528 0.19014 0.0447 0.4021 0.10831 0.62558 0.19028 0.22383 0.0821 0.44561 0.17758 0.65578 0.28141 0.09141 0.0452 0.17858 0.0909 0.26146 0.13674 0.10836 0.06 0.21409 0.12452 0.31216 0.19296 0.1592 0.11111 0.28232 0.22163 0.36015 0.32127 0.03551 0.0455 0.05674 0.0826 0.06763 0.10958 0.01057 0.0262 0.0097 0.0384 0.0069 0.039 0.0036 0.0264 0.0029 0.0636-0.0116 0.11683-0.01555 0.0571-0.04848 0.13724-0.1149 0.24008-0.06616 0.10244-0.15912 0.21739-0.28276 0.34179-0.12357 0.12433-0.27138 0.25167-0.44083 0.37899-0.34762 0.26118-0.7632 0.50506-1.2006 0.71324-0.46186 0.21981-0.92595 0.38957-1.3475 0.50516-0.47184 0.12937-0.85612 0.18213-1.146 0.18865-0.16197 4e-3 -0.28402-7e-3 -0.37509-0.0211-0.09346-0.0142-0.17356-0.0354-0.20948-0.0456-0.01395-4e-3 -0.02732-8e-3 -0.03986-0.0125-0.01132-4e-3 -0.02289-8e-3 -0.0346-0.0138-0.02619-0.0121-0.05434-0.0294-0.08315-0.0579-0.06485-0.0643-0.12254-0.17628-0.15234-0.34521-0.03516-0.19927-0.02502-0.44035 0.02009-0.6965 0.06454-0.36651 0.19464-0.73041 0.31386-0.98708z"/>
   <path d="m80.047 565.54c-6e-3 0.0227-0.01742 0.0505-0.03522 0.0862-0.01381 0.0277-0.03116 0.0598-0.05214 0.0976-0.03482 0.0628-0.0796 0.1415-0.13316 0.2392-0.09039 0.16489-0.20687 0.38583-0.32988 0.64745-0.14724 0.31314-0.30111 0.67921-0.4049 1.0251-0.05839 0.1946-0.11201 0.41981-0.15475 0.65003-0.05054 0.27226-0.08642 0.55441-0.0955 0.80538-0.0044 0.12167-0.0025 0.23627 0.0069 0.34086 0.0095 0.10549 0.02677 0.20238 0.05396 0.28771 0.01396 0.0438 0.03111 0.0864 0.05216 0.12599 0.02143 0.0403 0.04889 0.0813 0.08377 0.11646 0.01817 0.0183 0.03868 0.0354 0.06162 0.0498 0.02361 0.0148 0.04889 0.0263 0.0754 0.0335 0.0272 7e-3 0.05368 0.01 0.07865 8e-3 0.02551-2e-3 0.04838-7e-3 0.06838-0.0152 0.04107-0.016 0.0734-0.0419 0.09858-0.0664 0.02776-0.027 0.05406-0.0596 0.07727-0.0905 0.05129-0.0681 0.13178-0.19011 0.17609-0.25426-0.07398 0.0587-0.1712 0.1206-0.25574 0.14565-0.03279 0.01-0.06316 0.0137-0.08629 0.01-0.02063-3e-3 -0.03497-0.0138-0.0327-0.0276 1e-3 -6e-3 0.0058-0.0127 0.01423-0.0177 0.0083-5e-3 0.0193-8e-3 0.03184-8e-3 0.01226-5.5e-4 0.02431 1e-3 0.03568 4e-3 0.01092 2e-3 0.02053 5e-3 0.02875 7e-3 0.0163 3e-3 0.02678 2e-3 0.03759-7e-3 0.01005-8e-3 0.01981-0.0234 0.03042-0.0438 0.01945-0.0373 0.04667-0.10318 0.07597-0.17647 0.02874-0.0719 0.06604-0.16769 0.10312-0.26468 0.07804-0.20412 0.17292-0.4597 0.25702-0.71028 0.0723-0.21543 0.1378-0.43035 0.18591-0.6284 0.08472-0.34875 0.1411-0.74986 0.1603-1.1099 0.01621-0.30408 0.0056-0.56505-0.0275-0.77239-0.01938-0.12157-0.04539-0.21833-0.0745-0.29447-0.01742-0.0456-0.0354-0.0823-0.05281-0.11206-0.0224-0.0383-0.04279-0.0631-0.0585-0.0804z"/>
   <path d="m78.657 561.39c0.37969-0.27496 0.87869-0.42968 1.4526-0.50636 0.06641-9e-3 0.13047-0.0171 0.19006-0.026 0.28887-0.0435 0.57672-0.0808 0.93618-0.0845 0.40346-4e-3 0.78407 0.0354 1.1932 0.0928 0.04123 6e-3 0.08375 0.0113 0.12708 0.0166 0.68315 0.084 1.2307 0.11918 1.6253 0.20247-0.23035-0.21117-0.72535-0.75162-1.3235-1.0872-0.04303-0.0241-0.08607-0.0469-0.129-0.0681-0.40208-0.19841-0.90543-0.37056-1.4462-0.40918-0.50158-0.0358-0.97628 0.0486-1.3692 0.24684-0.08139 0.0411-0.16182 0.0902-0.24008 0.14657-0.62021 0.44647-0.8651 1.1315-1.0164 1.4761z"/>
   <path d="m89.469 555.99c-0.12341 0.0708-0.33816 0.18991-0.66474 0.44511-0.22855 0.17859-0.49952 0.41449-0.8069 0.71999-0.42922 0.42658-0.90674 0.96712-1.3669 1.5826-0.12428 0.16622-0.25622 0.3492-0.3945 0.54784-0.51043 0.73324-1.1071 1.6802-1.687 2.7275-0.52905 0.95556-1.0169 1.9458-1.4059 2.8948-0.43495 1.0612-0.70518 1.9694-0.83383 2.7332-0.0859 0.51-0.10239 0.91771-0.08459 1.244 0.0017 0.0307 0.0036 0.0605 0.0059 0.0893 0.03681 0.47863 0.1402 0.80189 0.27711 1.0548 0.0553 0.10213 0.132 0.2225 0.23666 0.34651 0.13778 0.16324 0.33596 0.33715 0.6028 0.46712 0.16824 0.082 0.35235 0.14091 0.55219 0.17427 0.18708 0.0312 0.3812 0.0389 0.58215 0.0264 0.40854-0.0254 0.84168-0.13507 1.2719-0.28538 0.60245-0.2105 1.1906-0.49873 1.5466-0.67628-0.39628 0.096-1.02 0.21818-1.6277 0.22028-0.43628 2e-3 -0.79973-0.0589-1.073-0.17479-0.13038-0.0553-0.22981-0.11889-0.30402-0.18412-0.07856-0.0691-0.12622-0.13748-0.15636-0.19807-0.04477-0.09-0.05745-0.17944-0.0669-0.2365-0.0073-0.0443-0.01328-0.098-0.01752-0.13377-0.0022-0.0184-0.04642-0.30332-0.04908-0.49596-2.3e-4 -0.0167-3.28e-4 -0.0341-2.63e-4 -0.0524 6.88e-4 -0.19151 0.01936-0.47099 0.09535-0.86448 0.11631-0.60223 0.3479-1.3746 0.74563-2.362 0.3555-0.88258 0.79388-1.814 1.271-2.755 0.51924-1.024 1.0405-1.9732 1.4531-2.7369 0.11191-0.20717 0.21524-0.39959 0.30968-0.57843 0.3453-0.65386 0.65736-1.2996 0.8977-1.8305 0.17487-0.38623 0.30989-0.70691 0.41502-0.97155 0.14722-0.37062 0.22602-0.60913 0.27648-0.73773z"/>
   <path d="m83.877 564.87c0.76729-0.12844 3.3027-0.17798 4.6072-0.5235 1.0593-0.28056 2.2152-1.0269 2.6796-1.2456-0.49276 1e-3 -1.8909-0.19941-2.9577-7e-3 -1.5307 0.27574-3.4641 1.3673-4.3292 1.7763z"/>
  </g>
  <g transform="matrix(3.2807 0 0 3.2807 -423.46 -1056)">
   <path d="m133.37 519.91c-0.43518-0.28854-1.0944-0.6204-2.0732-0.80563-0.70939-0.13424-1.5631-0.18612-2.5522-0.0979-1.6214 0.14458-3.5604 0.66995-5.3885 1.6783-0.81963 0.45209-1.6048 0.9965-2.2908 1.6275-0.51286 0.4718-0.97095 0.99283-1.343 1.5582-0.10855 0.16498-0.21253 0.33792-0.30965 0.51857-0.37538 0.69828-0.65744 1.5298-0.68449 2.4632-0.024 0.82681 0.15299 1.7247 0.63372 2.6572 0.21227 0.40375 0.5247 0.7787 0.91623 1.1185 0.35681 0.30967 0.77277 0.58437 1.2194 0.81872 0.42797 0.22455 0.87885 0.4092 1.3194 0.54847 0.43761 0.13834 0.86078 0.23054 1.2365 0.27302 0.9573 0.15079 1.7562 0.21511 2.4687 0.22128 0.76031 7e-3 1.4207-0.0534 2.0336-0.14302 0.68357-0.0999 1.3733-0.2481 1.9849-0.38212 0.9897-0.21688 1.572-0.34814 2.3548-0.49399-0.65727 0.0919-1.5035 0.21849-2.3825 0.33651-0.62817 0.0843-1.3071 0.16575-1.9906 0.20094-0.6062 0.0312-1.2435 0.0288-1.9745-0.038-0.68257-0.0624-1.4463-0.18075-2.3665-0.38229-0.31981-0.0882-0.68439-0.21892-1.0634-0.38906-0.38164-0.17133-0.76507-0.37686-1.1222-0.60871-0.37372-0.24261-0.70144-0.50276-0.96971-0.7709-0.29443-0.29431-0.49667-0.57736-0.62623-0.84095-0.3868-0.761-0.51777-1.4643-0.5023-2.094 0.0176-0.71718 0.22629-1.3778 0.52529-1.9649 0.0772-0.15163 0.16068-0.29874 0.24879-0.44108 0.30245-0.48857 0.68322-0.95877 1.1253-1.4032 0.59142-0.59452 1.2829-1.1333 2.024-1.6027 1.6534-1.0472 3.4522-1.6931 4.99-1.9744 0.93563-0.17117 1.7582-0.20703 2.4538-0.15289 0.96102 0.0748 1.6428 0.31735 2.1054 0.56538z"/>
   <path d="m128.86 527.54c0.2113-0.0451 0.57005-0.0842 0.91122-0.0644 0.25796 0.0149 0.45557 0.0593 0.60314 0.11572 0.0913 0.0349 0.14444 0.0665 0.1841 0.0867 0.0327 0.0167 0.0492 0.0256 0.0636 0.0293 0.0341 9e-3 0.0374-0.0218 0.0692-0.043 0.012-8e-3 0.0283-0.0131 0.048-3e-3 0.0109 6e-3 0.0252 0.0158 0.042 0.034 0.0322 0.0347 0.0735 0.0987 0.11268 0.21146 0.0654 0.18818 0.10599 0.45145 0.12839 0.82897 0.019 0.32011 0.0225 0.69303 0.0404 1.0652 0.018 0.37271 0.051 0.73213 0.13071 1.0513 0.0419 0.16759 0.0954 0.31895 0.16297 0.45276 0.0736 0.14569 0.16094 0.26465 0.26069 0.35933 0.11524 0.10938 0.24033 0.17997 0.36587 0.2249 0.16967 0.0607 0.33869 0.0737 0.46961 0.0734-0.13167-0.0255-0.28563-0.073-0.42379-0.16568-0.10053-0.0675-0.18578-0.15407-0.25247-0.26444-0.0574-0.095-0.10012-0.20596-0.12884-0.33558-0.0265-0.11957-0.0407-0.25359-0.044-0.40307-6e-3 -0.28634 0.0279-0.61035 0.0795-0.96441 0.0513-0.35209 0.11713-0.71738 0.16452-1.0583 0.0543-0.39058 0.083-0.73622 0.0578-1.0451-0.0159-0.19537-0.0527-0.36712-0.11121-0.52038-0.0307-0.0804-0.0659-0.15186-0.10382-0.2155-0.0673-0.11312-0.14109-0.20875-0.21743-0.28894-0.17066-0.17924-0.36698-0.29636-0.57577-0.33753-0.0873-0.0172-0.18197-0.0225-0.28525-0.0117-0.12258 0.0128-0.25474 0.0537-0.3919 0.11883-0.2172 0.10307-0.43442 0.26046-0.64786 0.43713-0.28372 0.23484-0.557 0.4999-0.71216 0.63191z"/>
   <path d="m135.2 527.54c0.0128 0.13816 0.0345 0.40382 0.17957 0.65899 0.11172 0.19656 0.28092 0.36041 0.50096 0.46998 0.21536 0.10725 0.43853 0.14142 0.60738 0.13135 0.0323-2e-3 0.0626-5e-3 0.0909-0.01 0.22799-0.0354 0.40438-0.16185 0.63266-0.30184 0.0329-0.0202 0.0753-0.0462 0.11413-0.0702 0.12836-0.0793 0.28538-0.18402 0.448-0.32127 0.15412-0.13008 0.32063-0.29581 0.46347-0.49623 0.12171-0.17079 0.23487-0.37918 0.29608-0.61663 0.0565-0.21918 0.0694-0.47346-5e-3 -0.73155-0.0856-0.27554-0.22298-0.51868-0.41622-0.71663-0.18937-0.194-0.4177-0.32948-0.66732-0.41316-0.2435-0.0816-0.50239-0.11253-0.76243-0.10676-0.25745 6e-3 -0.52182 0.0475-0.78422 0.11614-0.52033 0.1362-1.0524 0.38344-1.5385 0.69759-0.4896 0.31644-0.94371 0.70795-1.3007 1.1406-0.18184 0.22035-0.34109 0.45448-0.46731 0.69845-0.12845 0.24827-0.22466 0.51057-0.27357 0.78145-0.0503 0.27882-0.05 0.56458 0.0152 0.84679 0.0675 0.29204 0.20054 0.56245 0.39248 0.80449 0.19807 0.24978 0.45225 0.46131 0.7478 0.63889 0.15132 0.0909 0.31421 0.17339 0.48739 0.24806 0.17784 0.0767 0.37162 0.14738 0.58236 0.21165 0.79398 0.24218 1.8504 0.39978 3.2476 0.43226 0.63971-0.037 1.2534-0.20718 1.8164-0.39662 0.73814-0.24837 1.3636-0.49437 1.6934-0.58492-0.34191-8e-3 -1.0327-0.0149-1.7915-0.0211-0.60792-5e-3 -1.1353-0.0263-1.6805-0.10635-1.3333-0.0608-2.2733-0.23466-2.927-0.45219-0.17174-0.0571-0.32255-0.11694-0.45478-0.17786-0.12893-0.0594-0.2424-0.12085-0.34158-0.1835-0.19452-0.12289-0.32816-0.24661-0.41766-0.36324-0.0846-0.11024-0.1332-0.21838-0.15746-0.32506-0.0238-0.1045-0.0274-0.22226-4e-3 -0.35656 0.0228-0.13258 0.0717-0.28072 0.15218-0.44206 0.0789-0.15833 0.18546-0.32377 0.31859-0.49158 0.26324-0.33185 0.61515-0.65348 1.0111-0.92457 0.3935-0.26944 0.80935-0.47445 1.1925-0.59008 0.19177-0.0579 0.36847-0.0913 0.52567-0.10206 0.15894-0.0109 0.29076 2e-3 0.3969 0.0303 0.10533 0.0283 0.18907 0.0729 0.25632 0.13279 0.0692 0.0616 0.13573 0.15271 0.18662 0.29184 0.029 0.0566 0.0434 0.12518 0.0338 0.21364-0.0107 0.0983-0.0503 0.20847-0.1149 0.31997-0.0748 0.12908-0.17494 0.24591-0.27954 0.34136-0.10864 0.0991-0.21891 0.17231-0.31183 0.21985-0.0295 0.0151-0.0574 0.0272-0.0835 0.0369-0.19469 0.0724-0.28787 0.0333-0.42152 0.0665-0.0144 4e-3 -0.0292 8e-3 -0.0448 0.0126-0.0802 0.025-0.17681 0.0734-0.29031 0.10705-0.11394 0.0337-0.24515 0.0512-0.39391 7e-3 -0.21117-0.0624-0.37135-0.22474-0.45921-0.35492z"/>
   <path d="m141.23 522.35c0.33509-0.15293 1.1777-0.36027 2.0961-0.88442 0.041-0.0234 0.0836-0.0482 0.1275-0.0742 0.48408-0.28699 1.3066-0.82863 1.9565-1.6127 0.45787-0.57435 0.73125-1.2826 0.81451-2.0064 0.0398-0.34579 0.0361-0.69637-0.0135-1.0348-0.0488-0.33296-0.14318-0.66142-0.29029-0.96196-0.14718-0.3007-0.34996-0.58026-0.62098-0.80306-0.27625-0.2271-0.61109-0.38326-0.99082-0.43477-0.38274-0.0519-0.77209 7e-3 -1.1503 0.15403-0.38473 0.14906-0.76109 0.38897-1.1269 0.70153-0.2415 0.20607-0.45906 0.45257-0.65486 0.71829-0.20082 0.27253-0.38617 0.57538-0.55676 0.89501-0.35473 0.66466-0.6611 1.4309-0.91892 2.2157-0.59012 1.7963-0.94568 3.7234-1.1161 5.3073-0.10686 0.99318-0.14177 1.8545-0.12953 2.5647 7e-3 0.43436 0.0325 0.81078 0.0685 1.1338 0.0422 0.3787 0.10408 0.71501 0.18173 1.0099 0.0852 0.32369 0.18932 0.59668 0.30727 0.82238 0.13463 0.25763 0.28658 0.45214 0.44679 0.58961 0.091 0.0781 0.18325 0.13649 0.27425 0.17755 0.10228 0.0462 0.19999 0.0691 0.29021 0.0759 0.10486 8e-3 0.19726-6e-3 0.27712-0.0281 0.099-0.0275 0.18531-0.07 0.2539-0.10672-0.0805 5e-3 -0.16832-4e-3 -0.25179-0.0354-0.066-0.0246-0.12529-0.0613-0.17643-0.11073-0.0435-0.0421-0.0802-0.0923-0.11243-0.15163-0.0286-0.0526-0.0546-0.11423-0.0787-0.18588-0.0421-0.12504-0.0818-0.29136-0.115-0.50914-0.0293-0.19241-0.054-0.42699-0.0705-0.71239-0.0151-0.26004-0.0234-0.56013-0.0228-0.90449 5.4e-4 -0.29324 8e-3 -0.63953 0.0302-1.0422 0.0357-0.65863 0.10959-1.472 0.24591-2.4082 0.21672-1.4884 0.59981-3.326 1.1756-4.9879 0.25184-0.72687 0.53463-1.4003 0.84031-1.9578 0.14623-0.26665 0.29423-0.50035 0.44188-0.69686 0.14513-0.19316 0.28303-0.34116 0.41002-0.44793 0.26822-0.22569 0.49272-0.35609 0.66989-0.42522 0.17017-0.0664 0.28198-0.0733 0.35999-0.0651 0.0703 7e-3 0.1354 0.0312 0.20194 0.0807 0.0703 0.0524 0.14945 0.13949 0.22304 0.27404 0.0737 0.13474 0.13498 0.30493 0.17383 0.50371 0.0392 0.20065 0.0536 0.42036 0.0396 0.6464-0.0294 0.47659-0.18085 0.93834-0.43721 1.3104-0.4411 0.66277-1.0624 1.2308-1.4715 1.6117 0.0304-0.0283-0.13295 0.1239-0.10254 0.0956-0.87234 0.81496-1.1604 1.2823-1.4988 1.6998z"/>
   <path d="m144.62 527.45c-0.0134 0.0457-0.0371 0.1069-0.0755 0.18968-0.0286 0.0616-0.064 0.13276-0.10791 0.21689-0.077 0.14752-0.1614 0.3003-0.27193 0.50315-0.0939 0.1724-0.1989 0.36693-0.29648 0.56098-0.0971 0.19313-0.1888 0.3894-0.26184 0.57675-0.0787 0.20193-0.13579 0.39318-0.15905 0.56911-0.0133 0.10094-0.0156 0.19749-5e-3 0.28829 0.0108 0.0886 0.0342 0.17032 0.0702 0.24223 8e-3 0.0167 0.0176 0.0332 0.0276 0.0493 0.0603 0.0969 0.14696 0.17519 0.25094 0.22143 0.11083 0.0493 0.22071 0.0535 0.31602 0.0354 0.10731-0.0204 0.20112-0.0695 0.27733-0.11783 0.1108-0.0702 0.20108-0.14723 0.26904-0.19375-0.0825 3e-3 -0.20075-0.0137-0.30115-0.0576-0.0714-0.0312-0.12773-0.0742-0.15136-0.12198-0.0207-0.0418-0.0105-0.0761 0.0147-0.0941 0.0223-0.0159 0.0502-0.0146 0.0628-0.0185 2e-3 -6.6e-4 4e-3 -1e-3 5e-3 -3e-3 6e-3 -5e-3 6e-3 -0.015 3e-3 -0.0411-3e-3 -0.028-7e-3 -0.0667-9e-3 -0.12751-3e-3 -0.10909 5e-3 -0.25075 0.0306-0.44414 0.0233-0.17722 0.0574-0.36951 0.0976-0.57899 0.0399-0.20793 0.0832-0.42076 0.1195-0.61763 0.0415-0.225 0.0708-0.4123 0.0874-0.5787 0.01-0.0979 0.0143-0.17989 0.0151-0.25036 1e-3 -0.095-4e-3 -0.16074-9e-3 -0.20853z"/>
   <path d="m145.03 524.49c0.24005-0.12445 1.0788-0.38069 1.4403-0.74671l-0.23144 0.13295c0.0796-0.0204 0.0941-0.45447 0.11295-0.54531-0.0603-0.0706-0.28289-0.44349-0.36153-0.42331-0.0439 0.0113-0.0878 0.0242-0.12706 0.0467-0.0393 0.0226-0.0726 0.054-0.10438 0.0862-0.36153 0.36602-0.60736 1.2079-0.72883 1.4494z"/>
   <path d="m146.89 528.02c-0.11815 0.29794-0.28498 0.65482-0.45262 0.9315-0.0629 0.10377-0.1252 0.19524-0.18464 0.26855-0.0536 0.0661-0.10569 0.1184-0.1512 0.14804-0.0214 0.0139-0.0422 0.0233-0.0596 0.0249-0.016 1e-3 -0.0328-4e-3 -0.0373-0.026-2e-3 -0.0105-2e-3 -0.0282 8e-3 -0.0542 5e-3 -0.0129 0.0133-0.0303 0.0273-0.0508 0.0133-0.0195 0.0361-0.0482 0.0724-0.0783 0.0346-0.0287 0.0963-0.0709 0.18631-0.0947 0.0462-0.0122 0.1-0.0195 0.15913-0.0168 0.0596 3e-3 0.1187 0.0155 0.1749 0.0378 0.0556 0.022 0.10275 0.0511 0.14159 0.0819 0.0383 0.0303 0.0681 0.062 0.0909 0.0901 0.0435 0.0537 0.0698 0.10542 0.0843 0.13676 0.0235 0.0507 0.0467 0.1212 0.0496 0.12936 9e-3 0.0252 0.0155 0.0398 0.022 0.0503 0.0122 0.02 0.0248 0.0254 0.037 0.0249 0.0237-8.9e-4 0.0521-0.0249 0.079-0.056 0.0539-0.0623 0.11442-0.16683 0.16994-0.28052 0.0132-0.0271 0.0264-0.0551 0.0392-0.0834 0.0397-0.0879 0.0792-0.18196 0.12038-0.27938 0.049-0.11593 0.0954-0.22472 0.13486-0.30403 0.0177-0.0355 0.033-0.0622 0.0384-0.0689 5e-3 -6e-3 6e-3 5e-3 -0.04 0.0607 0.0893-0.1056 0.20943-0.2359 0.36603-0.39351 0.1496-0.15057 0.32189-0.31544 0.51293-0.49169 0.37507-0.34605 0.79473-0.71048 1.2005-1.0542 0.41195-0.34901 0.76902-0.64267 1.0381-0.86673 0.0665-0.0553 0.12709-0.10609 0.17726-0.14868 0.0506-0.043 0.0948-0.0812 0.12402-0.1084 0.0151-0.014 0.0274-0.0262 0.0347-0.035 7e-3 -9e-3 0.0106-0.0153 5e-3 -0.017-3e-3 -8.7e-4 -8e-3 -5.6e-4 -0.0175 1e-3 -0.0117 2e-3 -0.021 5e-3 -0.0464 0.0113-0.0168 4e-3 -0.0637 0.0158-0.11994 0.0216-0.03 3e-3 -0.0764 6e-3 -0.1323 2e-3 -0.0547-4e-3 -0.14019-0.0176-0.23511-0.0614-0.029-0.018-0.0521-0.0389-0.068-0.0594-0.0156-0.02-0.0217-0.0364-0.021-0.0436 2e-3 -0.0186 0.0282 0.0138 0.0501 0.0694 0.0248 0.0629 0.0461 0.15271 0.0615 0.26459 0.0134 0.0971 0.0218 0.20572 0.026 0.32226 8.8e-4 0.0242 2e-3 0.0489 2e-3 0.074 7e-3 0.29881-7e-3 0.64479-0.0314 1.023-0.0238 0.37526-0.0565 0.77075-0.0828 1.152-0.0275 0.39768-0.0474 0.77041-0.0471 1.1075 1.8e-4 0.17581 6e-3 0.33875 0.0185 0.48785 0.0132 0.15655 0.0339 0.29662 0.0632 0.41941 0.0313 0.13114 0.0726 0.24281 0.12494 0.33302 0.028 0.0483 0.0593 0.0904 0.0937 0.12573 0.0366 0.0375 0.0761 0.0666 0.1179 0.0872 0.0448 0.022 0.0898 0.033 0.13357 0.0356 0.0473 3e-3 0.0924-4e-3 0.1343-0.0159 0.0469-0.0133 0.0923-0.0336 0.13492-0.0566 0.0504-0.0272 0.1-0.0598 0.14575-0.0925-0.053 0.0205-0.10819 0.0368-0.16192 0.0449-0.0456 7e-3 -0.0886 8e-3 -0.12695 8.5e-4 -0.0342-6e-3 -0.0624-0.0176-0.0846-0.0337-0.0201-0.0147-0.0344-0.0324-0.0452-0.0527-0.01-0.0186-0.0175-0.0409-0.0235-0.0668-6e-3 -0.0247-0.0102-0.0543-0.0132-0.0892-6e-3 -0.0663-5e-3 -0.15128 3e-3 -0.26088 8e-3 -0.10237 0.0231-0.22188 0.0456-0.36141 0.0214-0.13269 0.049-0.27953 0.0823-0.4419 0.0646-0.31536 0.14424-0.65784 0.23424-1.0468 0.0846-0.36572 0.17571-0.76111 0.2527-1.1419 0.0771-0.38112 0.14266-0.76017 0.17737-1.1066 3e-3 -0.0297 6e-3 -0.0592 8e-3 -0.0886 0.012-0.13982 0.0199-0.28308 0.0202-0.4234 3.5e-4 -0.1584-9e-3 -0.32611-0.0378-0.48853-0.0272-0.15268-0.0762-0.32653-0.17134-0.49066-0.0472-0.0815-0.10753-0.16357-0.18466-0.23929-0.0764-0.075-0.16657-0.14101-0.27066-0.19263-0.0963-0.0445-0.18365-0.0581-0.24042-0.0626-0.0581-5e-3 -0.10685-1e-3 -0.13966 2e-3 -0.0626 7e-3 -0.11468 0.0199-0.14055 0.0269-0.0295 8e-3 -0.0562 0.0164-0.0747 0.0225-0.0195 6e-3 -0.0377 0.0128-0.0533 0.0184-0.031 0.0112-0.0602 0.0226-0.0881 0.0341-0.028 0.0116-0.0563 0.024-0.0859 0.0377-0.0581 0.0269-0.12176 0.0591-0.19245 0.0973-0.0694 0.0375-0.14548 0.0808-0.22799 0.1297-0.32136 0.19057-0.74287 0.46885-1.1946 0.79226-0.4497 0.32192-0.92443 0.68493-1.3482 1.041-0.217 0.18233-0.42115 0.36324-0.60368 0.53762-0.18807 0.17966-0.35762 0.35658-0.49811 0.52661-0.0824 0.0995-0.13829 0.20065-0.17375 0.27203-0.0397 0.0798-0.0724 0.16084-0.0993 0.23542-0.0571 0.15851-0.10172 0.3277-0.13375 0.47968-0.0275 0.1307-0.0475 0.25665-0.0596 0.37052-4e-3 0.0373-7e-3 0.0743-9e-3 0.11072-9e-3 0.15539-3e-3 0.29616 0.0191 0.41616 0.0114 0.063 0.0256 0.11441 0.0444 0.17219 9e-3 0.0289 0.0195 0.0579 0.0319 0.0976 9e-3 0.0286 0.0106 0.0347 0.0227 0.0748 6e-3 0.0206 0.0251 0.0852 0.0527 0.14556 0.0152 0.0334 0.0423 0.0866 0.0868 0.14158 0.0232 0.0287 0.0535 0.0609 0.0923 0.0916 0.0394 0.0312 0.087 0.0607 0.14318 0.0829 0.0568 0.0225 0.11646 0.0354 0.17665 0.0382 0.0598 3e-3 0.11415-5e-3 0.16102-0.0169 0.0913-0.0241 0.15449-0.067 0.19058-0.0968 0.0377-0.0311 0.0623-0.0615 0.0773-0.0828 0.0157-0.0223 0.026-0.0422 0.0328-0.0578 0.0136-0.0309 0.0187-0.0568 0.021-0.0756 5e-3 -0.037 4.4e-4 -0.0732-3e-3 -0.10048-4e-3 -0.0311-9e-3 -0.0617-0.0142-0.0945-0.0106-0.0716-0.0188-0.14485-0.0243-0.23837-6e-3 -0.10028-8e-3 -0.21252-6e-3 -0.33641 5e-3 -0.32767 0.038-0.7204 0.0803-1.0379z"/>
   <path d="m156.04 526.68c-0.0285 0.13848-0.0797 0.36648-0.0833 0.61753-3e-3 0.18109 0.0195 0.37096 0.0868 0.55322 0.0654 0.17708 0.1687 0.33278 0.30606 0.4522 0.073 0.0635 0.15173 0.11313 0.23167 0.14871 0.089 0.0396 0.17941 0.0627 0.26751 0.0728 0.18627 0.0214 0.36699-0.0143 0.53375-0.0825 0.15132-0.062 0.30591-0.15684 0.45899-0.28187 0.11555-0.0944 0.24234-0.21598 0.36874-0.36742 0.11837-0.14183 0.24362-0.32204 0.35544-0.54983 0.1185-0.24791 0.21006-0.48789 0.26961-0.71719 0.0562-0.21643 0.0848-0.42672 0.0786-0.62688-6e-3 -0.19171-0.0437-0.37539-0.1203-0.54404-0.074-0.16297-0.1812-0.30471-0.3181-0.42098-0.13173-0.11188-0.28576-0.19576-0.45414-0.2541-0.16335-0.0566-0.34058-0.0893-0.52612-0.10078-0.3577-0.0221-0.75679 0.0342-1.1649 0.16236-0.3952 0.12414-0.80585 0.31805-1.1969 0.58056-0.3824 0.25669-0.74985 0.58165-1.0619 0.97334-0.30855 0.38731-0.56411 0.84197-0.72203 1.3569-0.15802 0.51519-0.21625 1.0834-0.13987 1.6937 0.0207 0.20938 0.064 0.405 0.13155 0.58633 0.0687 0.18452 0.16097 0.34979 0.27416 0.49574 0.11583 0.14936 0.24927 0.27288 0.39235 0.37409 0.14776 0.10452 0.30362 0.18384 0.45937 0.24434 0.23568 0.0915 0.47706 0.14215 0.70064 0.16848 0.0938 0.011 0.1892 0.0185 0.28601 0.0228 0.32445 0.0146 0.66136-5e-3 0.99568-0.0381 0.60827-0.065 1.1696-0.2591 1.6556-0.45333 0.66906-0.26741 1.2162-0.5181 1.5276-0.61935-0.32708 0.0149-0.94555 0.0574-1.6453 0.10057-0.52559 0.0324-1.036 0.0465-1.5434-0.0142-0.33003-0.0299-0.61352-0.059-0.8805-0.1025-0.0772-0.0126-0.14978-0.0259-0.21858-0.04-0.16743-0.0344-0.3185-0.0744-0.45129-0.12556-0.0861-0.0332-0.16136-0.0698-0.22683-0.11058-0.0624-0.0388-0.11823-0.0828-0.16731-0.13406-0.0479-0.0501-0.0942-0.11204-0.1351-0.19233-0.0406-0.0798-0.0772-0.18043-0.10341-0.3084-0.0722-0.45977-0.0436-0.88302 0.0579-1.2685 0.10214-0.3879 0.2795-0.74247 0.50854-1.058 0.23211-0.31972 0.51492-0.59592 0.81903-0.82198 0.31103-0.2312 0.63911-0.40615 0.9519-0.52311 0.32491-0.12149 0.62308-0.17685 0.86938-0.17752 0.1267-3.4e-4 0.23631 0.0137 0.32852 0.0383 0.0944 0.0251 0.1696 0.0608 0.22844 0.10294 0.0601 0.0431 0.10841 0.0965 0.14462 0.16307 0.0381 0.0701 0.0658 0.16043 0.0747 0.27606 9e-3 0.12181-2e-3 0.26769-0.0418 0.43827-0.0416 0.18036-0.11246 0.38159-0.21413 0.60204-0.0787 0.17741-0.17022 0.31074-0.25754 0.40715-0.0942 0.10401-0.19006 0.16866-0.27391 0.20789-0.11108 0.052-0.20938 0.0637-0.28549 0.0624-0.0806-1e-3 -0.15468-0.0185-0.20799-0.0273-0.0292-5e-3 -0.0535-8e-3 -0.0853-0.0104-0.0272-2e-3 -0.058-3e-3 -0.0941-8e-3 -0.0671-8e-3 -0.1522-0.0278-0.24906-0.0881-0.10167-0.0632-0.19958-0.16112-0.2844-0.29357-0.11898-0.1858-0.18387-0.39627-0.21025-0.54161z"/>
   <path d="m162.82 528.45c0.37295-0.68743 0.72952-1.464 0.86363-2.1364 0.0514-0.25751 0.0695-0.49667 0.0451-0.70889-0.0222-0.1935-0.0799-0.36592-0.18086-0.50872-0.0948-0.13415-0.22477-0.23769-0.3877-0.30627-0.15408-0.0649-0.33341-0.0967-0.53227-0.0969-0.19127-2.5e-4 -0.40029 0.0287-0.6216 0.085-0.21517 0.0548-0.44185 0.13539-0.67414 0.23996-0.45248 0.2037-0.9255 0.49803-1.366 0.86255-0.43451 0.35956-0.8359 0.78636-1.1487 1.2563-0.31681 0.47594-0.54322 0.9969-0.62037 1.5376-0.0396 0.27778-0.0395 0.55848 6e-3 0.8381 0.0474 0.2879 0.14251 0.5694 0.28708 0.84089 0.0227 0.0529 0.0473 0.1027 0.0735 0.14948 0.077 0.13753 0.17115 0.25848 0.28208 0.36276 0.14774 0.13888 0.31669 0.24018 0.49563 0.31266 0.176 0.0713 0.35869 0.11357 0.53667 0.1385 0.17744 0.0249 0.3545 0.033 0.52048 0.0341 0.39732-8e-3 0.80264-0.0517 1.2037-0.13129 0.46182-0.0917 0.91371-0.23405 1.3403-0.42156 0.80435-0.35356 1.5483-0.88064 2.1081-1.5743 0.0142-0.0178 0.025-0.0341 0.0328-0.0467 8e-3 -0.0129 0.0147-0.0252 0.0203-0.0359 0.0109-0.021 0.0205-0.0423 0.0286-0.0614 0.0159-0.0373 0.0331-0.0823 0.0492-0.1264 0.0322-0.0877 0.0717-0.20257 0.11199-0.32596 0.0428-0.13097 0.09-0.28221 0.13531-0.43895 0.0376-0.12993 0.0756-0.26939 0.10855-0.40769 0.0341-0.14281 0.0648-0.29267 0.0834-0.43307 9e-3 -0.0691 0.0158-0.13986 0.0179-0.20917 2e-3 -0.0676 3e-5 -0.14131-0.0113-0.21508-0.0109-0.0712-0.0331-0.15996-0.0826-0.24736-0.0253-0.0447-0.0591-0.0913-0.10382-0.1344-0.0451-0.0435-0.099-0.081-0.16093-0.10889-0.0617-0.0277-0.12526-0.0432-0.18752-0.0489-0.0614-6e-3 -0.11907-2e-3 -0.1716 7e-3 -0.10165 0.0174-0.19345 0.0555-0.27089 0.0968-0.38295 0.21507-0.67445 0.49682-0.87 0.82373-0.19587 0.32745-0.28688 0.68606-0.28733 1.0395-4.6e-4 0.3558 0.0906 0.70281 0.2535 1.0096 0.16612 0.31286 0.40812 0.5863 0.70941 0.78901 0.31141 0.20952 0.67941 0.339 1.0807 0.36483 0.4173 0.0269 0.85014-0.0593 1.2782-0.25456 0.44984-0.20518 0.88696-0.52689 1.3036-0.95411 0.10465-0.1073 0.208-0.22123 0.30999-0.34165 0.33173-0.39168 0.65028-0.85414 0.95426-1.3851 0.0175-0.0349 0.0316-0.0698 0.0431-0.10241 0.012-0.034 0.0225-0.0693 0.0318-0.1045 0.0191-0.0728 0.0348-0.15242 0.0471-0.2336 0.0254-0.16707 0.04-0.36114 0.0395-0.55252-2.7e-4 -0.0958-4e-3 -0.19827-0.0147-0.30007-0.01-0.0975-0.0267-0.20564-0.0562-0.31293-7e-3 -0.026-0.0153-0.0525-0.0244-0.0793-0.0277-0.0812-0.0642-0.16664-0.11573-0.25028-0.0691-0.11221-0.16318-0.21745-0.29042-0.30343-0.13061-0.0756-0.27503-0.13074-0.43187-0.15192-0.15802-0.0213-0.31692-6e-3 -0.46944 0.0444-0.15021 0.05-0.2821 0.13066-0.39433 0.22705-0.11104 0.0954-0.20415 0.20715-0.28108 0.32514-0.15155 0.23243-0.25336 0.50861-0.30926 0.79656-0.0557 0.28697-0.069 0.60173-0.0315 0.92335 0.0371 0.31797 0.12498 0.6507 0.27779 0.97121 0.15122 0.31716 0.36758 0.62499 0.66052 0.88651 0.082 0.0732 0.16967 0.14246 0.26301 0.20692 0.22713 0.15684 0.49403 0.28956 0.80201 0.38068 0.39909 0.11807 0.85263 0.16208 1.3609 0.11112 0.92015-0.0939 1.763-0.46623 2.4607-1.0214 0.69095-0.54978 1.2102-1.2541 1.5363-1.9902 0.36252-0.81821 0.46937-1.6291 0.391-2.3366-0.0467-0.42153-0.15664-0.79157-0.29908-1.1099-0.19097-0.42672-0.43427-0.74734-0.64201-0.97868 0.17496 0.26107 0.35269 0.61003 0.45515 1.0426 0.076 0.32094 0.10727 0.67417 0.0748 1.0533-0.0545 0.63507-0.2864 1.3068-0.71028 1.931-0.38376 0.56505-0.90007 1.0522-1.4953 1.3913-0.59979 0.34175-1.235 0.5089-1.8592 0.50495-0.33474-2e-3 -0.58236-0.0622-0.7645-0.13596-0.14111-0.0572-0.2536-0.12666-0.34477-0.19667-0.0381-0.0293-0.0742-0.0599-0.10828-0.0917-0.1207-0.11245-0.22342-0.24512-0.30837-0.39385-0.0867-0.1518-0.15352-0.31808-0.20003-0.48912-0.0472-0.17352-0.0708-0.34184-0.0764-0.49246-6e-3 -0.158 8e-3 -0.26782 0.0206-0.3503 6e-3 -0.0381 0.01-0.063 6e-3 -0.0773-4e-3 -0.015-0.0156-0.0181-0.0351-0.024-0.0191-6e-3 -0.0407-0.0139-0.0456-0.0272-4e-3 -0.0119 0.0113-0.0232 0.0493-0.016-1.8e-4 -0.0242 1.5e-4 -0.0456 0.0118-0.0546 8e-3 -6e-3 0.0188-3e-3 0.0281 0.011 3e-3 4e-3 6e-3 0.01 9e-3 0.0162 0.0115 0.0271 0.0177 0.0671 0.017 0.11569-7.9e-4 0.0501-9e-3 0.10589-0.023 0.16423-0.0285 0.11754-0.0796 0.23825-0.13361 0.33842-0.0256 0.0475-0.0517 0.09-0.0737 0.12074-0.0106 0.0147-0.0202 0.0267-0.0276 0.0341-7e-3 7e-3 -0.0124 0.0101-0.0119 4e-3 -0.28205 0.47899-0.56572 0.88019-0.8464 1.2093-0.0861 0.10095-0.17171 0.19483-0.25673 0.28188-0.34043 0.34858-0.66311 0.57929-0.95673 0.718-0.27657 0.13066-0.52249 0.17756-0.73324 0.17076-0.20238-7e-3 -0.384-0.0629-0.54003-0.15757-0.15294-0.0928-0.28354-0.22407-0.37876-0.38208-0.0934-0.15498-0.14994-0.33123-0.16023-0.51118-0.0101-0.17646 0.0241-0.35874 0.11524-0.53181 0.0907-0.17223 0.24462-0.34793 0.49074-0.49913 0.0168-0.0141 0.0116-0.0107-0.0195-8e-3 -0.016 2e-3 -0.0408 3e-3 -0.0714-5.9e-4 -0.0315-4e-3 -0.0671-0.0126-0.10327-0.0296-0.0364-0.0171-0.0673-0.0396-0.0918-0.0642-0.0241-0.0242-0.0396-0.0479-0.049-0.0662-0.019-0.0371-0.016-0.0518-0.0125-0.0478 4e-3 4e-3 9e-3 0.0256 0.0115 0.0567 3e-3 0.0321 3e-3 0.0727-4e-5 0.12034-6e-3 0.0982-0.023 0.21567-0.0484 0.34077-0.0243 0.11946-0.0553 0.24261-0.0892 0.3602-0.0409 0.14187-0.0864 0.27692-0.13009 0.39284-0.0417 0.11064-0.0818 0.2034-0.11422 0.26707-0.0163 0.032-0.0307 0.0565-0.0395 0.0675-4e-3 5e-3 -8e-3 8e-3 -7e-3 4e-3 3.6e-4 -2e-3 2e-3 -6e-3 5e-3 -0.0122 3e-3 -6e-3 9e-3 -0.016 0.0196-0.0292-0.48974 0.53175-1.1416 0.91695-1.8389 1.1839-0.36966 0.14153-0.75946 0.25268-1.1554 0.33472-0.34429 0.0713-0.69097 0.11703-1.03 0.13639-0.14814 0.0128-0.28265 0.0231-0.41074 0.0261-0.12692 3e-3 -0.23938-2e-3 -0.33984-0.0164-0.0994-0.0146-0.19072-0.0396-0.27349-0.0811-0.0632-0.0316-0.12656-0.0754-0.18828-0.13834-0.0212-0.0216-0.043-0.046-0.0652-0.0739-0.1195-0.20386-0.20095-0.41384-0.24711-0.62934-0.0449-0.2097-0.0567-0.4262-0.0365-0.64845 0.0397-0.43529 0.20215-0.88558 0.46511-1.3272 0.25887-0.43481 0.60559-0.84492 0.99457-1.2023 0.39358-0.36159 0.82085-0.66051 1.2302-0.87539 0.20984-0.11014 0.41331-0.19736 0.60485-0.26054 0.19717-0.065 0.37977-0.10398 0.54382-0.1175 0.17035-0.014 0.31874-5.1e-4 0.444 0.0379 0.13107 0.0402 0.23924 0.10832 0.3238 0.20516 0.0912 0.10449 0.15607 0.24378 0.19028 0.41862 0.0376 0.19208 0.0366 0.41895 2.7e-4 0.67364-0.0952 0.66732-0.42098 1.4512-0.77633 2.1514z"/>
  </g>
 </g>
</svg>
